<?xml version="1.0" encoding="utf-8"?>
<!-- Generator: Adobe Illustrator 15.1.0, SVG Export Plug-In . SVG Version: 6.00 Build 0)  -->
<!DOCTYPE svg PUBLIC "-//W3C//DTD SVG 1.1//EN" "http://www.w3.org/Graphics/SVG/1.1/DTD/svg11.dtd">
<svg version="1.1" id="Layer_1" xmlns="http://www.w3.org/2000/svg" xmlns:xlink="http://www.w3.org/1999/xlink" x="0px" y="0px"
	 width="432px" height="31.5px" viewBox="0 0 432 31.5" enable-background="new 0 0 432 31.5" xml:space="preserve">
<g>
	<rect fill="none" width="432" height="31.5"/>
	<path fill="#FFFFFF" d="M6.661,30.799V2h26.52v5.32h-21.2v6.4h17.04v5.36h-17.04v6.4h21.2v5.32H6.661z"/>
	<path fill="#FFFFFF" d="M48.581,30.799l-12.76-23.2h6.04l9.16,16.84l9.12-16.84h6.04l-12.8,23.2H48.581z"/>
	<path fill="#FFFFFF" d="M73.301,30.799c-1.52,0-2.82-0.54-3.9-1.62c-1.08-1.08-1.62-2.38-1.62-3.9v-8.72h18.32v-2.32
		c0-0.746-0.047-1.166-0.14-1.26c-0.094-0.093-0.514-0.14-1.26-0.14h-16.92v-5.24h18.04c1.52,0,2.82,0.54,3.9,1.62
		s1.62,2.38,1.62,3.9v17.68H73.301z M74.421,25.559h11.68v-4.28h-13.08v2.88c0,0.747,0.046,1.167,0.14,1.26
		C73.254,25.513,73.674,25.559,74.421,25.559z"/>
	<path fill="#FFFFFF" d="M95.181,30.799v-23.2h18.04c1.52,0,2.82,0.54,3.9,1.62s1.62,2.38,1.62,3.9v17.68h-5.24v-16.56
		c0-0.746-0.047-1.166-0.14-1.26c-0.094-0.093-0.514-0.14-1.26-0.14h-10.28c-0.747,0-1.167,0.047-1.26,0.14
		c-0.094,0.094-0.14,0.514-0.14,1.26v16.56H95.181z"/>
	<path fill="#FFFFFF" d="M135.381,30.799V2h5.32v11.72h6.76L157.301,2h5.76v1.52l-10.8,12.88l10.84,12.88v1.52h-5.8l-9.84-11.72
		h-6.76v11.72H135.381z"/>
	<path fill="#FFFFFF" d="M172.301,30.799c-1.52,0-2.82-0.54-3.9-1.62c-1.08-1.08-1.62-2.38-1.62-3.9v-8.72h18.32v-2.32
		c0-0.746-0.047-1.166-0.14-1.26c-0.094-0.093-0.514-0.14-1.26-0.14h-16.92v-5.24h18.04c1.52,0,2.82,0.54,3.9,1.62
		s1.62,2.38,1.62,3.9v17.68H172.301z M173.421,25.559h11.68v-4.28h-13.08v2.88c0,0.747,0.046,1.167,0.14,1.26
		C172.254,25.513,172.674,25.559,173.421,25.559z"/>
	<path fill="#FFFFFF" d="M193.741,30.799v-17.68c0-1.52,0.54-2.82,1.62-3.9c1.08-1.08,2.38-1.62,3.9-1.62h12.88v5.24h-11.76
		c-0.747,0-1.167,0.047-1.26,0.14c-0.094,0.094-0.14,0.514-0.14,1.26v16.56H193.741z"/>
	<path fill="#FFFFFF" d="M220.42,30.799c-1.52,0-2.819-0.54-3.899-1.62s-1.62-2.38-1.62-3.9v-25.32h5.28v24.2
		c0,0.747,0.046,1.167,0.14,1.26c0.093,0.094,0.5,0.14,1.22,0.14h3.561v5.24H220.42z"/>
	<path fill="#FFFFFF" d="M240.381,30.799V2h5.279v11.72h18.881V2h5.279v28.8h-5.279v-11.72H245.66v11.72H240.381z"/>
	<path fill="#FFFFFF" d="M279.7,30.799c-1.52,0-2.819-0.54-3.899-1.62s-1.62-2.38-1.62-3.9v-12.16c0-1.52,0.54-2.82,1.62-3.9
		s2.38-1.62,3.899-1.62h12.521c1.52,0,2.82,0.54,3.9,1.62c1.079,1.08,1.619,2.38,1.619,3.9v12.16c0,1.52-0.54,2.82-1.619,3.9
		c-1.08,1.08-2.381,1.62-3.9,1.62H279.7z M280.82,25.559h10.28c0.746,0,1.166-0.046,1.26-0.14c0.094-0.093,0.141-0.513,0.141-1.26
		v-9.92c0-0.746-0.047-1.166-0.141-1.26c-0.094-0.093-0.514-0.14-1.26-0.14h-10.28c-0.746,0-1.167,0.047-1.26,0.14
		c-0.094,0.094-0.14,0.514-0.14,1.26v9.92c0,0.747,0.046,1.167,0.14,1.26C279.653,25.513,280.074,25.559,280.82,25.559z"/>
	<path fill="#FFFFFF" d="M301.94,30.799V5.52c0-1.52,0.54-2.82,1.62-3.9c1.08-1.08,2.38-1.62,3.899-1.62h8.761v5.28h-7.641
		c-0.747,0-1.167,0.047-1.26,0.14c-0.094,0.094-0.14,0.5-0.14,1.22v0.96h9.04v5.24h-9.04v17.96H301.94z"/>
	<path fill="#FFFFFF" d="M319.141,30.799V5.52c0-1.52,0.54-2.82,1.62-3.9c1.08-1.08,2.38-1.62,3.899-1.62h8.761v5.28h-7.641
		c-0.747,0-1.167,0.047-1.26,0.14c-0.094,0.094-0.14,0.5-0.14,1.22v0.96h9.04v5.24h-9.04v17.96H319.141z"/>
	<path fill="#FFFFFF" d="M336.38,30.799v-23.2h28.76c1.521,0,2.82,0.54,3.9,1.62s1.62,2.38,1.62,3.9v17.68h-5.2v-16.56
		c0-0.746-0.054-1.166-0.16-1.26c-0.107-0.093-0.521-0.14-1.24-0.14h-6.479c-0.747,0-1.167,0.047-1.261,0.14
		c-0.094,0.094-0.14,0.514-0.14,1.26v16.56h-5.28v-16.56c0-0.746-0.047-1.166-0.14-1.26c-0.094-0.093-0.514-0.14-1.26-0.14h-6.48
		c-0.747,0-1.167,0.047-1.26,0.14c-0.094,0.094-0.14,0.514-0.14,1.26v16.56H336.38z"/>
	<path fill="#FFFFFF" d="M380.1,30.799c-1.52,0-2.819-0.54-3.899-1.62s-1.62-2.38-1.62-3.9v-8.72h18.32v-2.32
		c0-0.746-0.047-1.166-0.141-1.26c-0.094-0.093-0.514-0.14-1.26-0.14h-16.92v-5.24h18.04c1.52,0,2.82,0.54,3.899,1.62
		c1.08,1.08,1.62,2.38,1.62,3.9v17.68H380.1z M381.22,25.559H392.9v-4.28h-13.08v2.88c0,0.747,0.046,1.167,0.14,1.26
		C380.053,25.513,380.473,25.559,381.22,25.559z"/>
	<path fill="#FFFFFF" d="M401.98,30.799v-23.2h18.04c1.52,0,2.819,0.54,3.899,1.62s1.62,2.38,1.62,3.9v17.68h-5.239v-16.56
		c0-0.746-0.047-1.166-0.141-1.26c-0.094-0.093-0.514-0.14-1.26-0.14h-10.28c-0.747,0-1.167,0.047-1.26,0.14
		c-0.094,0.094-0.14,0.514-0.14,1.26v16.56H401.98z"/>
</g>
</svg>
